<mxfile host="Electron" modified="2024-03-17T19:10:26.068Z" agent="Mozilla/5.0 (Windows NT 10.0; Win64; x64) AppleWebKit/537.36 (KHTML, like Gecko) draw.io/23.1.5 Chrome/120.0.6099.109 Electron/28.1.0 Safari/537.36" etag="IV1YsovIToxkzi4MNHlM" version="23.1.5" type="device">
  <diagram name="PÃ¡gina-1" id="FPsZZBQrPHzei5Uk8WKl">
    <mxGraphModel dx="1434" dy="844" grid="1" gridSize="10" guides="1" tooltips="1" connect="1" arrows="1" fold="1" page="1" pageScale="1" pageWidth="827" pageHeight="1169" math="0" shadow="0">
      <root>
        <mxCell id="0" />
        <mxCell id="1" parent="0" />
        <mxCell id="IT-KUPOSkaaKSR2KjbaR-18" value="prep" style="strokeWidth=2;html=1;shape=mxgraph.flowchart.stored_data;whiteSpace=wrap;container=0;fontSize=11;strokeColor=#1A85F0;fontColor=#1A85F0;" parent="1" vertex="1">
          <mxGeometry x="44" y="590" width="100" height="60" as="geometry" />
        </mxCell>
        <mxCell id="IT-KUPOSkaaKSR2KjbaR-20" value="train.py" style="shape=process;whiteSpace=wrap;html=1;backgroundOutline=1;container=0;fontSize=11;strokeWidth=2;strokeColor=#1A85F0;fontColor=#1A85F0;" parent="1" vertex="1">
          <mxGeometry x="232" y="590" width="120" height="60" as="geometry" />
        </mxCell>
        <mxCell id="IT-KUPOSkaaKSR2KjbaR-21" value="prep" style="strokeWidth=2;html=1;shape=mxgraph.flowchart.stored_data;whiteSpace=wrap;container=0;fontSize=11;strokeColor=#1A85F0;fontColor=#1A85F0;" parent="1" vertex="1">
          <mxGeometry x="440" y="590" width="100" height="60" as="geometry" />
        </mxCell>
        <mxCell id="IT-KUPOSkaaKSR2KjbaR-23" value="" style="endArrow=classic;html=1;rounded=0;fontSize=11;edgeStyle=orthogonalEdgeStyle;strokeWidth=2;strokeColor=#1A85F0;fontColor=#1A85F0;" parent="1" source="IT-KUPOSkaaKSR2KjbaR-8" target="IT-KUPOSkaaKSR2KjbaR-18" edge="1">
          <mxGeometry width="50" height="50" relative="1" as="geometry">
            <mxPoint x="94" y="630" as="sourcePoint" />
            <mxPoint x="440" y="750" as="targetPoint" />
            <Array as="points">
              <mxPoint x="490" y="410" />
              <mxPoint x="94" y="410" />
            </Array>
          </mxGeometry>
        </mxCell>
        <mxCell id="IT-KUPOSkaaKSR2KjbaR-24" value="" style="endArrow=classic;html=1;rounded=0;fontSize=11;strokeWidth=2;strokeColor=#1A85F0;fontColor=#1A85F0;" parent="1" source="IT-KUPOSkaaKSR2KjbaR-18" target="IT-KUPOSkaaKSR2KjbaR-20" edge="1">
          <mxGeometry width="50" height="50" relative="1" as="geometry">
            <mxPoint x="130" y="550" as="sourcePoint" />
            <mxPoint x="180" y="500" as="targetPoint" />
          </mxGeometry>
        </mxCell>
        <mxCell id="IT-KUPOSkaaKSR2KjbaR-19" value="" style="edgeStyle=orthogonalEdgeStyle;rounded=0;orthogonalLoop=1;jettySize=auto;html=1;fontSize=11;strokeWidth=2;strokeColor=#1A85F0;fontColor=#1A85F0;" parent="1" source="IT-KUPOSkaaKSR2KjbaR-20" target="IT-KUPOSkaaKSR2KjbaR-21" edge="1">
          <mxGeometry relative="1" as="geometry" />
        </mxCell>
        <mxCell id="IT-KUPOSkaaKSR2KjbaR-25" value="" style="endArrow=classic;html=1;rounded=0;fontSize=11;strokeWidth=2;strokeColor=#1A85F0;fontColor=#1A85F0;" parent="1" source="IT-KUPOSkaaKSR2KjbaR-20" target="IT-KUPOSkaaKSR2KjbaR-21" edge="1">
          <mxGeometry width="50" height="50" relative="1" as="geometry">
            <mxPoint x="350" y="720" as="sourcePoint" />
            <mxPoint x="400" y="670" as="targetPoint" />
          </mxGeometry>
        </mxCell>
        <mxCell id="IT-KUPOSkaaKSR2KjbaR-26" value="" style="endArrow=classic;html=1;rounded=0;fontSize=11;strokeWidth=2;strokeColor=#1A85F0;fontColor=#1A85F0;" parent="1" source="IT-KUPOSkaaKSR2KjbaR-21" target="IT-KUPOSkaaKSR2KjbaR-31" edge="1">
          <mxGeometry width="50" height="50" relative="1" as="geometry">
            <mxPoint x="300" y="820" as="sourcePoint" />
            <mxPoint x="490" y="630" as="targetPoint" />
          </mxGeometry>
        </mxCell>
        <mxCell id="IT-KUPOSkaaKSR2KjbaR-27" value="src/scripts.py" style="shape=process;whiteSpace=wrap;html=1;backgroundOutline=1;container=0;fontSize=11;strokeWidth=2;strokeColor=#1A85F0;fontColor=#1A85F0;" parent="1" vertex="1">
          <mxGeometry x="232" y="470" width="120" height="60" as="geometry" />
        </mxCell>
        <mxCell id="IT-KUPOSkaaKSR2KjbaR-28" value="" style="endArrow=classic;startArrow=classic;html=1;rounded=0;fontSize=11;dashed=1;strokeWidth=2;strokeColor=#1A85F0;fontColor=#1A85F0;" parent="1" source="IT-KUPOSkaaKSR2KjbaR-20" target="IT-KUPOSkaaKSR2KjbaR-27" edge="1">
          <mxGeometry width="50" height="50" relative="1" as="geometry">
            <mxPoint x="240" y="760" as="sourcePoint" />
            <mxPoint x="290" y="710" as="targetPoint" />
          </mxGeometry>
        </mxCell>
        <mxCell id="IT-KUPOSkaaKSR2KjbaR-31" value="train_model.joblib" style="strokeWidth=2;html=1;shape=mxgraph.flowchart.document2;whiteSpace=wrap;size=0.25;fontSize=11;strokeColor=#1A85F0;fontColor=#1A85F0;" parent="1" vertex="1">
          <mxGeometry x="440" y="700" width="100" height="60" as="geometry" />
        </mxCell>
        <mxCell id="f8EWw45bTdJCkcaQZ4kH-4" value="prep.py&lt;br style=&quot;font-size: 11px;&quot;&gt;ETL" style="shape=process;whiteSpace=wrap;html=1;backgroundOutline=1;fontSize=11;strokeWidth=2;strokeColor=#1A85F0;fontColor=#1A85F0;" vertex="1" parent="1">
          <mxGeometry x="34" y="820" width="120" height="60" as="geometry" />
        </mxCell>
        <mxCell id="f8EWw45bTdJCkcaQZ4kH-5" value="predictions" style="strokeWidth=2;html=1;shape=mxgraph.flowchart.stored_data;whiteSpace=wrap;fontSize=11;strokeColor=#1A85F0;fontColor=#1A85F0;" vertex="1" parent="1">
          <mxGeometry x="440" y="820" width="100" height="60" as="geometry" />
        </mxCell>
        <mxCell id="f8EWw45bTdJCkcaQZ4kH-6" value="[file]_predictions.csv" style="strokeWidth=2;html=1;shape=mxgraph.flowchart.multi-document;whiteSpace=wrap;fontSize=11;strokeColor=#1A85F0;fontColor=#1A85F0;" vertex="1" parent="1">
          <mxGeometry x="418" y="940" width="144" height="90" as="geometry" />
        </mxCell>
        <mxCell id="f8EWw45bTdJCkcaQZ4kH-8" value="" style="endArrow=classic;html=1;rounded=0;fontSize=11;strokeWidth=2;strokeColor=#1A85F0;fontColor=#1A85F0;" edge="1" parent="1" source="f8EWw45bTdJCkcaQZ4kH-16" target="f8EWw45bTdJCkcaQZ4kH-4">
          <mxGeometry width="50" height="50" relative="1" as="geometry">
            <mxPoint x="150" y="980" as="sourcePoint" />
            <mxPoint x="186" y="930" as="targetPoint" />
          </mxGeometry>
        </mxCell>
        <mxCell id="f8EWw45bTdJCkcaQZ4kH-10" value="" style="endArrow=classic;html=1;rounded=0;fontSize=11;strokeWidth=2;strokeColor=#1A85F0;fontColor=#1A85F0;" edge="1" parent="1" source="f8EWw45bTdJCkcaQZ4kH-4" target="f8EWw45bTdJCkcaQZ4kH-5">
          <mxGeometry width="50" height="50" relative="1" as="geometry">
            <mxPoint x="356" y="1030" as="sourcePoint" />
            <mxPoint x="406" y="980" as="targetPoint" />
          </mxGeometry>
        </mxCell>
        <mxCell id="f8EWw45bTdJCkcaQZ4kH-11" value="" style="endArrow=classic;html=1;rounded=0;fontSize=11;strokeWidth=2;strokeColor=#1A85F0;fontColor=#1A85F0;" edge="1" parent="1" source="f8EWw45bTdJCkcaQZ4kH-5" target="f8EWw45bTdJCkcaQZ4kH-6">
          <mxGeometry width="50" height="50" relative="1" as="geometry">
            <mxPoint x="306" y="1130" as="sourcePoint" />
            <mxPoint x="356" y="1080" as="targetPoint" />
          </mxGeometry>
        </mxCell>
        <mxCell id="f8EWw45bTdJCkcaQZ4kH-12" value="src/scripts.py" style="shape=process;whiteSpace=wrap;html=1;backgroundOutline=1;fontSize=11;strokeWidth=2;strokeColor=#1A85F0;fontColor=#1A85F0;" vertex="1" parent="1">
          <mxGeometry x="34" y="940" width="120" height="60" as="geometry" />
        </mxCell>
        <mxCell id="f8EWw45bTdJCkcaQZ4kH-13" value="" style="endArrow=classic;startArrow=classic;html=1;rounded=0;fontSize=11;dashed=1;strokeWidth=2;strokeColor=#1A85F0;fontColor=#1A85F0;" edge="1" parent="1" source="f8EWw45bTdJCkcaQZ4kH-4" target="f8EWw45bTdJCkcaQZ4kH-12">
          <mxGeometry width="50" height="50" relative="1" as="geometry">
            <mxPoint x="246" y="1070" as="sourcePoint" />
            <mxPoint x="296" y="1020" as="targetPoint" />
          </mxGeometry>
        </mxCell>
        <mxCell id="f8EWw45bTdJCkcaQZ4kH-15" value="" style="endArrow=classic;html=1;rounded=0;fontSize=11;entryX=1;entryY=0.5;entryDx=0;entryDy=0;edgeStyle=orthogonalEdgeStyle;strokeWidth=2;strokeColor=#1A85F0;fontColor=#1A85F0;" edge="1" parent="1" source="IT-KUPOSkaaKSR2KjbaR-31" target="f8EWw45bTdJCkcaQZ4kH-16">
          <mxGeometry width="50" height="50" relative="1" as="geometry">
            <mxPoint x="556" y="760" as="sourcePoint" />
            <mxPoint x="160" y="1000" as="targetPoint" />
          </mxGeometry>
        </mxCell>
        <mxCell id="f8EWw45bTdJCkcaQZ4kH-16" value="" style="rhombus;whiteSpace=wrap;html=1;strokeWidth=2;strokeColor=#1A85F0;fontColor=#1A85F0;" vertex="1" parent="1">
          <mxGeometry x="54" y="690" width="80" height="80" as="geometry" />
        </mxCell>
        <mxCell id="f8EWw45bTdJCkcaQZ4kH-18" value="" style="endArrow=classic;html=1;rounded=0;strokeWidth=2;strokeColor=#1A85F0;fontColor=#1A85F0;" edge="1" parent="1" source="IT-KUPOSkaaKSR2KjbaR-18" target="f8EWw45bTdJCkcaQZ4kH-16">
          <mxGeometry width="50" height="50" relative="1" as="geometry">
            <mxPoint x="60" y="770" as="sourcePoint" />
            <mxPoint x="110" y="720" as="targetPoint" />
          </mxGeometry>
        </mxCell>
        <mxCell id="IT-KUPOSkaaKSR2KjbaR-2" value="raw files" style="strokeWidth=2;html=1;shape=mxgraph.flowchart.multi-document;whiteSpace=wrap;fontSize=11;strokeColor=#1A85F0;fontColor=#1A85F0;" parent="1" vertex="1">
          <mxGeometry x="50" y="290" width="88" height="60" as="geometry" />
        </mxCell>
        <mxCell id="IT-KUPOSkaaKSR2KjbaR-3" value="raw" style="strokeWidth=2;html=1;shape=mxgraph.flowchart.stored_data;whiteSpace=wrap;fontSize=11;strokeColor=#1A85F0;fontColor=#1A85F0;" parent="1" vertex="1">
          <mxGeometry x="44" y="180" width="100" height="60" as="geometry" />
        </mxCell>
        <mxCell id="IT-KUPOSkaaKSR2KjbaR-5" value="prep.py&lt;br style=&quot;font-size: 11px;&quot;&gt;ETL" style="shape=process;whiteSpace=wrap;html=1;backgroundOutline=1;fontSize=11;strokeWidth=2;strokeColor=#1A85F0;fontColor=#1A85F0;" parent="1" vertex="1">
          <mxGeometry x="232" y="180" width="120" height="60" as="geometry" />
        </mxCell>
        <mxCell id="IT-KUPOSkaaKSR2KjbaR-7" value="prep" style="strokeWidth=2;html=1;shape=mxgraph.flowchart.stored_data;whiteSpace=wrap;fontSize=11;strokeColor=#1A85F0;fontColor=#1A85F0;" parent="1" vertex="1">
          <mxGeometry x="440" y="180" width="100" height="60" as="geometry" />
        </mxCell>
        <mxCell id="IT-KUPOSkaaKSR2KjbaR-8" value="clean files" style="strokeWidth=2;html=1;shape=mxgraph.flowchart.multi-document;whiteSpace=wrap;fontSize=11;strokeColor=#1A85F0;fontColor=#1A85F0;" parent="1" vertex="1">
          <mxGeometry x="446" y="290" width="88" height="60" as="geometry" />
        </mxCell>
        <mxCell id="IT-KUPOSkaaKSR2KjbaR-9" value="" style="endArrow=classic;html=1;rounded=0;fontSize=11;strokeWidth=2;strokeColor=#1A85F0;fontColor=#1A85F0;" parent="1" source="IT-KUPOSkaaKSR2KjbaR-2" target="IT-KUPOSkaaKSR2KjbaR-3" edge="1">
          <mxGeometry width="50" height="50" relative="1" as="geometry">
            <mxPoint x="390" y="460" as="sourcePoint" />
            <mxPoint x="440" y="410" as="targetPoint" />
          </mxGeometry>
        </mxCell>
        <mxCell id="IT-KUPOSkaaKSR2KjbaR-10" value="" style="endArrow=classic;html=1;rounded=0;fontSize=11;strokeWidth=2;strokeColor=#1A85F0;fontColor=#1A85F0;" parent="1" source="IT-KUPOSkaaKSR2KjbaR-3" target="IT-KUPOSkaaKSR2KjbaR-5" edge="1">
          <mxGeometry width="50" height="50" relative="1" as="geometry">
            <mxPoint x="130" y="210" as="sourcePoint" />
            <mxPoint x="180" y="160" as="targetPoint" />
          </mxGeometry>
        </mxCell>
        <mxCell id="IT-KUPOSkaaKSR2KjbaR-13" value="" style="edgeStyle=orthogonalEdgeStyle;rounded=0;orthogonalLoop=1;jettySize=auto;html=1;fontSize=11;strokeWidth=2;strokeColor=#1A85F0;fontColor=#1A85F0;" parent="1" source="IT-KUPOSkaaKSR2KjbaR-5" target="IT-KUPOSkaaKSR2KjbaR-7" edge="1">
          <mxGeometry relative="1" as="geometry" />
        </mxCell>
        <mxCell id="IT-KUPOSkaaKSR2KjbaR-11" value="" style="endArrow=classic;html=1;rounded=0;fontSize=11;strokeWidth=2;strokeColor=#1A85F0;fontColor=#1A85F0;" parent="1" source="IT-KUPOSkaaKSR2KjbaR-5" target="IT-KUPOSkaaKSR2KjbaR-7" edge="1">
          <mxGeometry width="50" height="50" relative="1" as="geometry">
            <mxPoint x="350" y="380" as="sourcePoint" />
            <mxPoint x="400" y="330" as="targetPoint" />
          </mxGeometry>
        </mxCell>
        <mxCell id="IT-KUPOSkaaKSR2KjbaR-12" value="" style="endArrow=classic;html=1;rounded=0;fontSize=11;strokeWidth=2;strokeColor=#1A85F0;fontColor=#1A85F0;" parent="1" source="IT-KUPOSkaaKSR2KjbaR-7" target="IT-KUPOSkaaKSR2KjbaR-8" edge="1">
          <mxGeometry width="50" height="50" relative="1" as="geometry">
            <mxPoint x="300" y="480" as="sourcePoint" />
            <mxPoint x="350" y="430" as="targetPoint" />
          </mxGeometry>
        </mxCell>
        <mxCell id="IT-KUPOSkaaKSR2KjbaR-15" value="src/scripts.py" style="shape=process;whiteSpace=wrap;html=1;backgroundOutline=1;fontSize=11;strokeWidth=2;strokeColor=#1A85F0;fontColor=#1A85F0;" parent="1" vertex="1">
          <mxGeometry x="232" y="60" width="120" height="60" as="geometry" />
        </mxCell>
        <mxCell id="IT-KUPOSkaaKSR2KjbaR-16" value="" style="endArrow=classic;startArrow=classic;html=1;rounded=0;fontSize=11;dashed=1;strokeWidth=2;strokeColor=#1A85F0;fontColor=#1A85F0;" parent="1" source="IT-KUPOSkaaKSR2KjbaR-5" target="IT-KUPOSkaaKSR2KjbaR-15" edge="1">
          <mxGeometry width="50" height="50" relative="1" as="geometry">
            <mxPoint x="240" y="420" as="sourcePoint" />
            <mxPoint x="290" y="370" as="targetPoint" />
          </mxGeometry>
        </mxCell>
      </root>
    </mxGraphModel>
  </diagram>
</mxfile>
